<svg width="25" height="25" viewBox="0 0 25 25" fill="none" xmlns="http://www.w3.org/2000/svg">
<g id="arrow">
<rect id="Rectangle 6178" x="0.5" y="0.5" width="24" height="24" rx="3.5" fill="white" stroke="#FECE00"/>
<path id="Vector" d="M16.7071 11.8934L11.5567 7.24344C11.4721 7.1663 11.3715 7.10508 11.2606 7.06329C11.1497 7.02151 11.0308 7 10.9107 7C10.7905 7 10.6716 7.02151 10.5607 7.06329C10.4498 7.10508 10.3492 7.1663 10.2646 7.24344C10.0951 7.39764 10 7.60623 10 7.82365C10 8.04108 10.0951 8.24967 10.2646 8.40387L14.7689 12.5188L10.2646 16.5927C10.0951 16.7469 10 16.9555 10 17.1729C10 17.3903 10.0951 17.5989 10.2646 17.7531C10.3489 17.8309 10.4494 17.8927 10.5603 17.9351C10.6712 17.9775 10.7903 17.9995 10.9107 18C11.0311 17.9995 11.1502 17.9775 11.2611 17.9351C11.372 17.8927 11.4725 17.8309 11.5567 17.7531L16.7071 13.1032C16.7994 13.0261 16.8731 12.9326 16.9236 12.8285C16.974 12.7244 17 12.6119 17 12.4983C17 12.3846 16.974 12.2722 16.9236 12.1681C16.8731 12.064 16.7994 11.9704 16.7071 11.8934Z" fill="#FECE00"/>
</g>
</svg>
